<svg xmlns="http://www.w3.org/2000/svg" viewBox="0 0 1024 1024" version="1.1">
<g id="Parent-Group"><g id="Group-rgba(0,0,0,0)" fill="rgba(0,0,0,0)">
<path fill="rgba(0,0,0,0)" opacity="1.00" d=" M 0.00 0.00 L 1024.00 0.00 L 1024.00 1024.00 L 0.00 1024.00 L 0.00 0.00 M 707.58 164.49 C 699.36 167.13 694.90 175.90 694.64 184.10 C 693.85 198.52 700.48 212.12 708.16 223.91 C 699.24 234.66 689.40 244.62 679.23 254.19 C 677.54 255.87 675.75 257.61 675.00 259.93 C 675.25 263.04 679.21 265.26 681.47 262.56 C 692.94 251.68 703.75 240.04 713.70 227.75 C 718.54 231.02 723.90 233.42 729.16 235.92 C 735.09 238.48 741.54 241.23 748.14 239.87 C 754.94 238.61 760.81 232.92 761.71 225.97 C 762.48 219.46 757.92 213.05 751.68 211.26 C 742.42 208.19 732.78 212.04 724.10 215.25 C 731.68 206.78 738.84 195.84 736.87 183.93 C 735.00 170.83 720.57 160.18 707.58 164.49 M 406.12 183.11 C 391.38 189.98 377.65 200.20 369.29 214.40 C 360.14 230.31 357.94 249.93 362.66 267.61 C 366.25 280.37 373.31 292.82 384.61 300.20 C 375.31 300.07 365.90 299.88 356.76 301.91 C 341.96 304.57 327.49 312.32 319.24 325.22 C 313.26 334.69 311.25 346.00 310.13 356.97 C 308.44 377.90 311.53 399.73 321.87 418.23 C 329.36 431.74 341.61 442.83 356.37 447.73 C 374.40 453.88 394.31 452.25 412.11 446.07 C 408.56 454.60 407.80 464.10 409.27 473.18 C 411.40 485.37 415.55 497.68 423.77 507.16 C 429.14 513.50 436.89 517.40 445.00 518.86 C 458.10 521.32 471.52 521.88 484.82 521.36 C 484.96 603.08 484.71 684.81 484.87 766.54 C 477.66 743.51 465.82 722.04 450.80 703.20 C 439.99 689.67 426.67 678.45 413.17 667.72 C 396.33 654.49 378.86 641.77 359.47 632.51 C 323.40 615.32 282.75 608.09 242.95 611.26 C 234.34 612.07 225.62 613.67 217.85 617.63 C 211.66 620.78 206.53 626.50 205.29 633.48 C 203.56 642.57 207.18 651.61 211.51 659.44 C 219.76 674.00 230.39 687.04 241.30 699.67 C 255.36 715.67 271.28 730.14 289.10 741.85 C 317.80 760.74 351.31 771.13 385.09 776.13 C 410.33 779.87 435.91 779.83 461.36 780.09 C 465.65 790.93 468.49 802.45 468.12 814.19 C 450.44 814.12 432.75 814.20 415.08 815.04 C 375.38 815.68 335.63 814.53 295.96 816.82 C 272.03 818.27 248.05 818.42 224.09 818.69 C 222.04 818.47 221.50 820.72 220.51 822.03 C 222.00 823.46 223.73 824.73 225.93 824.43 C 266.97 824.49 307.99 822.93 349.01 821.76 C 381.01 821.15 413.01 822.08 445.01 821.90 C 466.66 822.28 488.32 822.79 509.97 823.36 C 526.63 823.80 543.30 823.23 559.94 822.45 C 581.29 821.94 602.64 820.97 623.99 821.59 C 658.05 822.26 692.00 825.25 726.01 826.92 C 756.02 828.58 786.05 829.87 816.10 830.41 C 817.72 830.60 819.73 829.68 819.76 827.84 C 820.06 825.93 817.65 824.99 816.10 825.01 C 790.04 824.65 763.99 823.43 737.97 822.07 C 705.98 820.65 674.07 817.95 642.08 816.70 C 601.66 814.37 561.17 817.43 520.74 815.46 C 522.92 807.27 525.61 799.18 529.42 791.60 C 530.87 788.63 532.70 785.86 533.82 782.75 C 554.06 782.42 574.33 779.30 593.43 772.47 C 631.06 759.26 664.13 735.94 694.52 710.57 C 717.27 691.43 738.78 670.81 758.89 648.91 C 780.11 626.11 799.64 601.64 816.21 575.24 C 822.33 565.10 828.20 554.60 831.49 543.16 C 833.63 536.69 830.92 528.21 824.06 525.91 C 814.66 522.65 804.63 521.93 794.82 520.73 C 759.06 516.98 722.99 525.03 690.21 539.12 C 654.93 553.84 623.54 576.70 596.29 603.29 C 583.89 615.27 572.27 628.11 562.20 642.13 C 551.36 656.99 542.59 673.29 535.38 690.19 C 527.12 709.57 521.66 729.96 516.01 750.21 C 514.25 756.35 513.10 762.70 510.57 768.60 C 510.45 684.41 510.55 600.21 510.49 516.02 C 526.59 510.90 541.14 499.20 547.10 483.08 C 552.21 470.38 551.09 456.08 546.90 443.31 C 556.97 453.69 569.59 461.93 583.75 465.41 C 603.67 470.64 625.73 467.32 643.08 456.15 C 657.05 447.18 667.17 432.92 672.62 417.37 C 678.11 402.34 678.42 385.68 674.93 370.16 C 671.43 356.16 664.51 341.82 651.58 334.32 C 638.19 326.43 621.97 328.06 607.13 329.07 C 617.95 324.27 628.22 318.06 637.10 310.18 C 647.94 300.42 653.89 286.23 656.03 272.02 C 657.41 263.52 655.08 254.99 651.88 247.17 C 648.25 238.54 644.00 230.10 638.29 222.64 C 628.15 209.19 612.93 199.51 596.24 196.80 C 578.04 193.83 558.76 197.29 542.95 206.85 C 530.49 214.16 520.77 225.52 514.09 238.23 C 513.89 232.76 513.08 227.34 511.98 221.98 C 509.13 208.72 504.50 195.12 494.73 185.30 C 485.15 175.72 471.23 171.93 457.99 171.89 C 440.14 171.59 422.28 175.58 406.12 183.11 M 262.79 410.05 C 264.81 413.31 268.11 415.49 270.74 418.23 C 274.47 421.56 277.59 425.75 282.19 427.96 C 284.62 426.94 287.58 424.55 285.86 421.63 C 283.20 417.87 279.60 414.91 276.30 411.74 C 273.52 409.38 271.09 406.48 267.77 404.87 C 264.83 403.35 261.00 407.15 262.79 410.05 M 750.42 422.39 C 749.18 423.38 748.44 425.05 749.00 426.63 C 750.28 429.86 754.23 430.14 757.15 430.92 C 759.94 432.00 763.11 429.23 762.52 426.35 C 761.95 423.76 759.07 422.94 756.87 422.28 C 754.78 421.85 752.31 420.97 750.42 422.39 M 247.55 512.19 C 245.44 521.24 249.03 530.41 253.96 537.90 C 247.04 535.18 239.26 532.48 231.85 534.92 C 220.46 538.37 216.31 554.94 224.42 563.53 C 228.82 568.17 235.88 569.32 241.93 567.98 C 250.70 566.21 258.01 560.44 264.20 554.26 C 272.63 562.73 281.03 571.35 290.48 578.68 C 293.47 581.36 297.97 578.58 297.97 574.87 C 296.59 571.85 293.74 569.92 291.40 567.70 C 284.30 561.69 277.61 555.21 270.50 549.22 C 273.56 536.64 280.45 524.21 277.81 510.90 C 276.49 503.20 268.60 497.56 260.87 498.94 C 254.01 499.66 248.75 505.60 247.55 512.19 Z" />
<path fill="rgba(0,0,0,0)" opacity="1.00" d=" M 702.44 184.99 C 702.53 179.36 705.94 173.06 711.93 172.11 C 720.12 171.24 727.86 178.06 729.20 185.98 C 730.20 190.85 728.32 195.74 726.03 199.97 C 722.34 206.39 717.44 211.98 712.88 217.77 C 707.63 207.59 701.76 196.82 702.44 184.99 Z" />
<path fill="rgba(0,0,0,0)" opacity="1.00" d=" M 437.40 181.69 C 453.00 178.89 470.47 177.80 484.59 186.29 C 497.62 194.44 503.42 209.78 506.46 224.15 C 508.24 232.64 509.18 241.33 508.93 250.00 C 508.72 256.55 506.44 262.76 504.94 269.07 C 504.17 271.01 506.05 272.80 507.97 272.21 C 509.70 270.84 510.03 268.47 510.68 266.49 C 513.99 252.65 520.18 239.32 529.69 228.64 C 549.43 205.53 585.09 196.92 612.69 210.24 C 627.70 217.37 638.05 231.34 644.79 246.12 C 648.56 254.52 652.29 263.63 650.55 273.02 C 648.56 283.77 644.08 294.46 636.14 302.18 C 627.01 310.84 616.01 317.34 604.59 322.49 C 597.46 325.64 590.15 328.46 582.57 330.29 C 579.00 331.32 574.86 330.20 571.82 332.75 C 572.69 334.25 573.61 335.75 574.54 337.23 C 590.34 336.17 606.16 335.78 621.99 335.42 C 631.24 335.01 640.98 335.95 649.03 340.93 C 659.22 346.80 665.09 357.82 668.35 368.76 C 673.73 386.47 672.65 406.43 663.93 422.92 C 658.03 434.96 648.27 445.04 636.40 451.27 C 620.80 459.34 602.11 461.85 585.16 456.84 C 568.66 452.14 554.98 440.82 543.60 428.36 C 538.84 422.38 537.89 414.39 533.94 407.94 C 532.87 406.14 530.11 404.74 528.39 406.48 C 526.90 408.81 528.09 411.52 529.19 413.74 C 536.81 429.22 543.40 445.63 544.83 462.99 C 545.64 473.95 541.66 485.11 534.01 493.02 C 522.69 505.02 506.25 510.75 490.17 512.53 C 476.32 513.90 462.29 513.07 448.60 510.67 C 441.61 509.50 434.88 506.21 430.20 500.81 C 423.42 493.08 419.89 483.07 417.94 473.12 C 415.41 461.58 418.46 449.33 424.58 439.42 C 434.91 430.17 444.97 420.59 454.57 410.57 C 455.59 409.43 456.39 408.13 457.25 406.88 C 456.23 406.07 455.19 405.29 454.14 404.54 C 445.80 411.34 438.38 419.17 430.30 426.27 C 425.72 430.18 421.20 434.47 415.42 436.53 C 400.08 442.40 383.03 445.17 366.83 441.46 C 351.60 438.13 338.17 428.12 330.23 414.75 C 319.86 397.17 316.82 376.11 318.75 356.00 C 319.86 345.23 322.12 333.80 329.55 325.47 C 338.36 315.22 351.73 310.12 364.85 308.40 C 377.54 306.81 390.46 307.72 402.97 310.22 C 408.28 311.26 412.86 314.34 417.99 315.93 C 419.45 314.79 420.87 313.59 422.25 312.35 C 417.91 309.26 412.83 307.50 408.24 304.84 C 398.25 299.27 387.92 293.47 380.64 284.42 C 363.51 262.67 365.11 228.35 384.48 208.45 C 398.43 193.82 417.93 185.82 437.40 181.69 M 451.37 190.20 C 451.19 190.56 450.81 191.28 450.62 191.64 C 450.94 191.96 451.57 192.61 451.88 192.93 C 452.83 192.87 454.74 192.76 455.69 192.70 C 454.59 191.34 452.96 190.75 451.37 190.20 M 418.80 195.96 C 419.31 199.23 420.20 202.65 422.14 205.37 C 422.95 206.95 426.17 205.12 424.93 203.46 C 424.09 200.38 422.93 197.38 421.50 194.53 C 420.57 194.95 419.67 195.43 418.80 195.96 M 436.96 204.25 C 436.71 205.62 436.52 207.23 438.30 207.60 C 440.47 208.05 443.53 210.73 445.21 208.30 C 443.79 205.35 439.82 205.05 436.96 204.25 M 634.15 263.88 C 632.58 267.44 638.04 268.99 640.78 268.77 C 642.53 265.11 636.92 263.49 634.15 263.88 M 477.41 278.43 C 473.38 279.62 471.49 284.14 472.11 288.06 C 473.02 295.87 476.13 303.19 478.69 310.57 C 480.00 313.81 481.28 317.84 484.93 319.12 C 488.09 319.30 491.20 317.18 492.14 314.14 C 493.53 310.16 491.67 306.04 490.66 302.20 C 488.53 295.91 487.01 289.43 484.83 283.17 C 483.86 280.22 480.70 277.19 477.41 278.43 M 529.37 283.66 C 523.10 285.57 518.70 290.88 514.96 295.97 C 512.54 299.42 509.74 302.92 509.01 307.18 C 509.22 311.23 513.12 314.61 517.09 314.89 C 520.34 314.67 522.67 311.98 524.37 309.46 C 528.96 302.69 535.10 296.99 538.87 289.68 C 539.91 288.11 539.38 286.06 538.01 284.91 C 535.69 282.76 532.22 282.81 529.37 283.66 M 481.30 329.35 C 477.32 335.57 475.23 343.23 476.61 350.58 C 469.42 348.71 462.43 352.08 456.06 355.01 C 449.68 358.24 442.69 361.75 439.07 368.24 C 436.48 373.21 443.26 378.90 447.84 376.02 C 451.87 373.67 455.68 370.91 459.92 368.92 C 466.33 365.43 473.74 363.31 478.81 357.79 C 483.76 366.90 496.82 370.18 505.41 364.35 C 512.23 359.94 518.06 353.11 519.30 344.86 C 520.37 338.39 520.47 331.07 516.61 325.43 C 512.85 319.99 505.69 316.66 499.16 318.52 C 492.40 320.34 485.30 323.29 481.30 329.35 M 542.42 320.63 C 538.18 322.11 534.11 324.04 530.15 326.12 C 524.75 328.55 523.70 337.90 529.43 340.55 C 534.50 343.19 539.91 339.73 544.36 337.35 C 548.70 334.93 554.61 331.95 554.03 326.05 C 553.55 320.50 546.96 318.43 542.42 320.63 M 441.43 321.50 C 437.38 323.00 434.32 328.98 437.48 332.55 C 441.51 334.32 446.02 334.43 450.23 335.61 C 455.18 336.66 459.95 338.57 465.02 339.08 C 469.26 339.58 471.92 334.67 471.83 330.99 C 470.63 326.03 464.83 324.81 460.61 323.52 C 454.35 322.35 447.77 319.24 441.43 321.50 M 519.53 354.31 C 517.04 355.95 514.86 358.88 515.59 362.00 C 516.17 365.05 518.66 367.11 520.74 369.20 C 524.34 372.58 527.60 376.57 532.20 378.65 C 536.30 380.56 541.63 377.42 542.02 372.94 C 542.44 370.01 540.47 367.52 538.76 365.39 C 535.81 361.95 532.76 358.55 529.22 355.71 C 526.58 353.50 522.64 352.53 519.53 354.31 M 328.92 362.88 C 331.04 364.83 333.64 366.07 336.31 367.08 C 336.72 366.55 337.53 365.49 337.94 364.96 C 335.32 363.54 332.62 362.27 329.89 361.08 C 329.65 361.53 329.17 362.43 328.92 362.88 M 490.61 370.66 C 487.10 374.14 487.25 379.46 486.87 384.03 C 486.81 388.59 485.64 393.16 486.35 397.71 C 487.31 402.44 493.42 405.34 497.50 402.51 C 501.21 400.01 501.76 395.09 501.88 391.00 C 501.90 385.32 502.46 379.66 502.34 373.99 C 502.47 370.77 499.57 368.94 497.25 367.35 C 494.92 368.18 492.34 368.77 490.61 370.66 M 328.02 382.22 C 328.24 383.26 328.52 384.29 328.89 385.30 C 332.57 384.40 336.10 382.93 339.50 381.26 C 341.62 380.94 340.52 377.76 338.84 378.18 C 335.04 378.81 331.34 380.26 328.02 382.22 M 334.52 403.32 C 336.02 403.03 337.53 402.71 338.99 402.23 C 338.51 401.69 337.54 400.62 337.06 400.09 C 335.96 400.96 335.06 402.00 334.52 403.32 M 651.71 404.88 C 653.95 408.02 657.61 409.55 661.01 411.09 C 661.81 410.47 662.58 409.83 663.34 409.15 C 660.69 406.59 657.62 404.34 654.07 403.24 C 653.48 403.65 652.30 404.47 651.71 404.88 M 650.36 418.44 C 650.02 418.62 649.33 418.98 648.99 419.17 C 649.81 421.98 653.17 422.41 655.64 422.91 C 657.01 419.95 652.50 418.89 650.36 418.44 M 640.84 436.74 C 641.94 438.19 643.57 438.56 645.33 438.33 C 645.25 437.55 645.17 436.79 645.11 436.02 C 644.56 435.74 643.47 435.19 642.93 434.91 C 642.41 435.37 641.36 436.28 640.84 436.74 M 464.63 487.09 C 465.27 487.54 466.54 488.43 467.18 488.88 C 467.97 487.48 468.66 486.02 469.26 484.54 C 467.42 484.82 465.90 485.78 464.63 487.09 M 492.59 489.57 C 492.86 492.56 493.52 495.60 495.12 498.18 C 496.56 498.37 497.58 497.39 497.85 496.03 C 497.08 493.18 496.68 488.58 492.59 489.57 M 503.49 492.44 C 502.17 493.83 503.96 495.36 504.62 496.60 C 505.23 496.31 506.47 495.73 507.09 495.43 C 506.30 494.05 505.54 491.73 503.49 492.44 M 477.59 496.97 C 477.50 498.69 478.06 500.29 479.02 501.72 C 480.09 500.04 480.60 498.14 480.16 496.18 C 479.52 496.37 478.23 496.77 477.59 496.97 Z" />
<path fill="rgba(0,0,0,0)" opacity="1.00" d=" M 724.36 224.28 C 729.65 221.95 735.22 220.24 740.90 219.16 C 744.35 218.75 748.36 218.37 751.25 220.72 C 753.30 222.24 754.57 225.36 752.86 227.60 C 750.28 231.26 745.28 232.46 741.10 231.34 C 735.17 229.94 729.66 227.20 724.36 224.28 Z" />
<path fill="rgba(0,0,0,0)" opacity="1.00" d=" M 495.67 331.92 C 497.28 331.26 498.94 330.72 500.60 330.17 C 503.99 332.99 507.94 334.97 511.61 337.39 C 513.12 338.15 513.07 339.94 513.49 341.35 C 507.43 338.44 501.98 334.32 495.67 331.92 Z" />
<path fill="rgba(0,0,0,0)" opacity="1.00" d=" M 488.50 337.93 C 489.72 336.67 490.97 335.44 492.24 334.23 C 498.47 338.54 505.29 342.08 512.19 345.21 C 511.37 346.80 510.54 348.40 509.73 350.00 C 507.47 348.30 504.94 346.99 502.41 345.74 C 497.78 343.12 493.23 340.35 488.50 337.93 Z" />
<path fill="rgba(0,0,0,0)" opacity="1.00" d=" M 486.05 342.17 C 486.34 341.87 486.94 341.26 487.24 340.96 C 493.14 345.97 499.89 350.27 507.15 353.01 C 505.68 354.25 504.22 355.48 502.61 356.53 C 497.17 352.40 491.35 348.82 485.69 345.00 C 485.78 344.29 485.96 342.88 486.05 342.17 Z" />
<path fill="rgba(0,0,0,0)" opacity="1.00" d=" M 485.41 350.42 C 489.71 353.31 494.25 355.81 498.56 358.68 C 494.34 359.58 490.55 357.05 487.30 354.72 C 485.94 353.72 485.97 351.85 485.41 350.42 Z" />
<path fill="rgba(0,0,0,0)" opacity="1.00" d=" M 260.42 508.43 C 264.63 506.36 269.20 510.01 269.84 514.24 C 271.18 522.78 267.61 530.98 264.86 538.87 C 261.06 534.20 258.05 528.80 256.14 523.09 C 254.63 518.05 254.87 510.85 260.42 508.43 Z" />
<path fill="rgba(0,0,0,0)" opacity="1.00" d=" M 773.82 532.05 C 785.69 528.75 798.19 530.06 810.20 531.86 C 814.95 532.74 820.23 533.63 823.83 537.15 C 826.44 539.65 825.19 543.57 824.36 546.59 C 821.52 555.29 816.93 563.30 812.11 571.04 C 792.39 602.75 767.71 631.05 741.60 657.62 C 722.11 676.97 702.07 696.47 677.74 709.70 C 667.12 715.40 656.25 720.65 645.89 726.81 C 632.27 734.87 618.65 742.94 604.96 750.88 C 587.77 760.56 569.74 769.63 550.02 772.61 C 539.50 774.10 528.75 775.66 518.13 774.40 C 520.84 759.11 524.56 743.95 529.43 729.20 C 534.56 714.78 541.16 700.92 548.54 687.53 C 554.30 676.98 562.63 668.22 569.61 658.52 C 581.22 642.79 593.63 627.61 604.09 611.06 C 617.06 590.91 636.52 576.04 656.80 563.79 C 678.26 551.02 703.04 546.00 727.05 540.29 C 742.42 536.31 758.45 536.02 773.82 532.05 M 775.94 549.92 C 771.67 559.35 767.51 568.84 763.94 578.57 C 747.18 585.73 729.90 591.66 713.23 599.02 C 718.47 584.54 723.73 570.06 729.98 555.98 C 731.31 553.02 732.54 550.01 733.20 546.84 C 731.76 546.90 729.67 545.95 728.99 547.82 C 724.23 555.61 720.96 564.17 717.56 572.61 C 714.27 581.07 710.72 589.45 708.07 598.15 C 707.52 599.43 707.39 601.28 705.78 601.67 C 684.44 610.26 663.00 618.94 643.15 630.69 C 648.41 613.50 654.68 596.62 662.23 580.29 C 663.88 576.15 666.36 572.30 667.27 567.90 C 666.49 567.88 664.92 567.84 664.14 567.82 C 661.11 571.11 659.39 575.38 657.32 579.29 C 648.94 597.00 641.69 615.33 636.93 634.36 C 627.82 639.57 619.40 645.94 611.00 652.22 C 615.27 636.79 619.73 621.37 625.73 606.51 C 627.63 601.61 629.87 596.84 631.31 591.77 C 630.59 591.65 629.15 591.41 628.43 591.29 C 625.54 595.52 623.27 600.17 621.13 604.83 C 614.04 621.54 608.91 639.03 604.78 656.69 C 590.71 666.82 576.38 676.81 564.33 689.37 C 553.29 700.93 543.19 713.62 535.89 727.90 C 534.40 729.66 537.86 731.55 538.93 730.12 C 540.35 728.76 541.34 727.05 542.43 725.44 C 549.20 714.80 556.93 704.76 565.60 695.61 C 576.61 683.63 589.75 673.96 602.80 664.37 C 601.97 667.49 600.48 670.47 600.25 673.73 C 601.35 674.70 602.44 674.72 603.50 673.77 C 606.77 669.84 607.56 664.62 609.03 659.88 C 617.93 653.56 626.56 646.86 635.76 640.97 C 634.92 644.58 633.82 648.16 633.31 651.84 C 632.93 654.28 637.10 655.54 637.81 652.99 C 639.64 648.01 640.25 642.68 641.35 637.51 C 661.63 625.45 683.36 616.15 705.21 607.38 C 703.54 612.17 702.36 617.11 700.86 621.95 C 700.16 624.09 699.70 626.31 699.83 628.58 C 700.67 628.83 702.35 629.33 703.20 629.58 C 706.78 621.84 708.47 613.40 710.97 605.28 C 727.67 598.35 744.63 592.06 761.42 585.33 C 760.14 588.43 758.29 591.43 758.06 594.85 C 758.68 595.75 759.48 596.54 760.22 597.37 C 764.72 593.53 765.34 587.28 768.13 582.41 C 781.39 576.62 794.89 571.05 807.03 563.08 C 809.04 561.79 807.40 559.81 806.31 558.55 C 802.61 559.80 799.35 561.97 795.92 563.79 C 787.59 568.31 778.84 571.96 770.34 576.13 C 775.71 562.96 781.36 549.91 786.94 536.84 C 787.77 535.15 785.00 534.86 783.96 534.69 C 780.46 539.27 778.41 544.75 775.94 549.92 M 735.23 625.15 C 703.15 642.61 670.65 659.27 638.54 676.68 C 606.25 694.01 575.32 714.32 548.64 739.57 C 546.36 741.80 543.75 743.80 542.16 746.62 C 541.08 748.43 543.48 749.12 544.50 750.17 C 548.25 747.44 551.40 744.00 554.85 740.92 C 562.22 734.24 569.80 727.80 577.65 721.70 C 606.68 699.05 639.43 681.97 671.87 664.85 C 700.92 649.65 729.82 634.18 758.61 618.51 C 763.34 615.78 768.65 613.82 772.57 609.87 C 771.52 608.83 770.42 607.87 769.28 606.95 C 757.85 612.87 746.59 619.09 735.23 625.15 M 714.11 660.02 C 714.13 660.82 714.15 662.43 714.16 663.23 C 715.07 663.25 715.99 663.29 716.92 663.32 C 717.05 662.89 717.32 662.03 717.45 661.61 C 717.25 661.13 716.85 660.19 716.65 659.71 C 715.80 659.80 714.95 659.91 714.11 660.02 M 693.65 669.64 C 691.44 671.59 694.26 676.27 696.76 673.77 C 699.35 671.76 696.14 666.68 693.65 669.64 M 666.68 688.71 C 664.93 690.34 667.04 692.23 668.15 693.46 C 669.10 692.47 671.20 691.82 670.88 690.14 C 670.93 688.05 667.92 686.90 666.68 688.71 M 617.66 724.41 C 617.90 726.41 620.85 726.12 621.32 724.42 C 622.13 723.08 620.35 721.73 619.97 720.51 C 618.86 721.52 616.87 722.57 617.66 724.41 M 599.09 735.86 C 599.12 737.93 602.04 739.21 603.34 737.31 C 605.12 735.66 603.54 733.68 602.26 732.38 C 601.02 733.30 598.55 733.83 599.09 735.86 Z" />
<path fill="rgba(0,0,0,0)" opacity="1.00" d=" M 229.03 554.86 C 227.21 549.64 231.62 543.53 237.09 543.40 C 244.17 543.08 250.31 547.19 256.47 550.08 C 251.27 554.70 245.08 558.95 237.96 559.62 C 234.41 560.01 230.31 558.42 229.03 554.86 Z" />
<path fill="rgba(0,0,0,0)" opacity="1.00" d=" M 225.46 620.62 C 235.86 616.95 247.04 616.35 257.98 616.18 C 283.79 615.63 309.70 619.75 334.10 628.18 C 346.56 632.52 358.77 637.84 369.82 645.11 C 380.95 652.03 390.66 660.91 400.49 669.51 C 417.65 684.32 431.83 702.16 448.39 717.59 C 458.51 728.84 466.82 741.65 474.09 754.88 C 476.43 759.90 479.75 764.80 479.90 770.52 C 473.71 771.82 467.33 771.05 461.07 771.16 C 444.68 771.21 428.40 769.03 412.02 769.16 C 389.86 769.32 367.30 765.56 347.35 755.58 C 331.34 747.70 316.33 738.00 300.96 728.99 C 290.29 722.36 279.14 716.43 269.12 708.83 C 256.54 698.87 245.57 687.09 234.05 675.97 C 225.99 667.19 217.82 658.10 212.92 647.10 C 210.55 641.93 209.63 635.61 212.46 630.42 C 215.28 625.60 220.25 622.38 225.46 620.62 M 227.68 642.18 C 230.38 643.06 233.28 642.82 236.07 643.16 C 267.99 645.84 298.71 655.98 328.47 667.34 C 350.54 675.89 372.24 685.48 392.96 696.94 C 408.86 705.68 423.97 716.24 436.22 729.71 C 439.97 733.70 443.13 738.21 446.99 742.10 C 448.81 740.70 450.79 738.60 448.83 736.43 C 438.60 722.32 425.11 710.82 410.58 701.31 C 396.22 692.23 381.00 684.61 365.61 677.44 C 343.79 667.58 321.51 658.69 298.68 651.40 C 278.62 645.10 258.09 639.71 237.06 638.09 C 234.03 637.94 230.95 637.07 227.94 637.65 C 225.64 637.98 225.52 641.59 227.68 642.18 M 241.72 668.88 C 244.70 671.98 248.69 673.70 252.43 675.66 C 302.03 700.79 352.83 723.81 405.55 741.63 C 424.09 748.17 442.89 754.39 460.23 763.81 C 461.71 764.55 463.16 765.44 464.79 765.86 C 465.95 765.28 467.91 763.98 466.88 762.48 C 464.79 760.19 461.82 759.07 459.17 757.59 C 438.96 747.38 417.31 740.52 396.02 732.96 C 343.69 714.54 293.37 690.92 243.97 665.78 C 243.21 666.80 242.46 667.83 241.72 668.88 Z" />
<path fill="rgba(0,0,0,0)" opacity="1.00" d=" M 477.88 777.56 C 478.08 778.62 478.28 779.68 478.49 780.76 C 480.75 780.77 482.93 780.29 484.94 779.25 C 484.58 790.98 484.83 802.72 484.73 814.45 C 480.98 814.37 477.23 814.31 473.49 814.21 C 473.56 802.54 472.27 790.27 466.34 779.99 C 470.06 780.20 473.79 780.35 477.52 780.55 C 477.61 779.80 477.79 778.31 477.88 777.56 Z" />
<path fill="rgba(0,0,0,0)" opacity="1.00" d=" M 510.42 782.20 C 516.63 783.66 523.09 783.12 529.41 782.86 C 522.33 792.39 518.24 803.85 515.45 815.30 C 513.85 815.36 512.26 815.40 510.68 815.45 C 510.42 804.36 510.93 793.27 510.42 782.20 Z" />
</g>
<g id="Group-000000" fill="#3B3535">
<path fill="#3B3535" opacity="1.00" d=" M 707.58 164.49 C 720.57 160.18 735.00 170.83 736.87 183.93 C 738.84 195.84 731.68 206.78 724.10 215.25 C 732.78 212.04 742.42 208.19 751.68 211.26 C 757.92 213.05 762.48 219.46 761.71 225.97 C 760.81 232.92 754.94 238.61 748.14 239.87 C 741.54 241.23 735.09 238.48 729.16 235.92 C 723.90 233.42 718.54 231.02 713.70 227.75 C 703.75 240.04 692.94 251.68 681.47 262.56 C 679.21 265.26 675.25 263.04 675.00 259.93 C 675.75 257.61 677.54 255.87 679.23 254.19 C 689.40 244.62 699.24 234.66 708.16 223.91 C 700.48 212.12 693.85 198.52 694.64 184.10 C 694.90 175.90 699.36 167.13 707.58 164.49 M 702.44 184.99 C 701.76 196.82 707.63 207.59 712.88 217.77 C 717.44 211.98 722.34 206.39 726.03 199.97 C 728.32 195.74 730.20 190.85 729.20 185.98 C 727.86 178.06 720.12 171.24 711.93 172.11 C 705.94 173.06 702.53 179.36 702.44 184.99 M 724.36 224.28 C 729.66 227.20 735.17 229.94 741.10 231.34 C 745.28 232.46 750.28 231.26 752.86 227.60 C 754.57 225.36 753.30 222.24 751.25 220.72 C 748.36 218.37 744.35 218.75 740.90 219.16 C 735.22 220.24 729.65 221.95 724.36 224.28 Z" />
<path fill="#3B3535" opacity="1.00" d=" M 406.12 183.11 C 422.28 175.58 440.14 171.59 457.99 171.89 C 471.23 171.93 485.15 175.72 494.73 185.30 C 504.50 195.12 509.13 208.72 511.98 221.98 C 513.08 227.34 513.89 232.76 514.09 238.23 C 520.77 225.52 530.49 214.16 542.95 206.85 C 558.76 197.29 578.04 193.83 596.24 196.80 C 612.93 199.51 628.15 209.19 638.29 222.64 C 644.00 230.10 648.25 238.54 651.88 247.17 C 655.08 254.99 657.41 263.52 656.03 272.02 C 653.89 286.23 647.94 300.42 637.10 310.18 C 628.22 318.06 617.95 324.27 607.13 329.07 C 621.97 328.06 638.19 326.43 651.58 334.32 C 664.51 341.82 671.43 356.16 674.93 370.16 C 678.42 385.68 678.11 402.34 672.62 417.37 C 667.17 432.92 657.05 447.18 643.08 456.15 C 625.73 467.32 603.67 470.64 583.75 465.41 C 569.59 461.93 556.97 453.69 546.90 443.31 C 551.09 456.08 552.21 470.38 547.10 483.08 C 541.14 499.20 526.59 510.90 510.49 516.02 C 510.55 600.21 510.45 684.41 510.57 768.60 C 513.10 762.70 514.25 756.35 516.01 750.21 C 521.66 729.96 527.12 709.57 535.38 690.19 C 542.59 673.29 551.36 656.99 562.20 642.13 C 572.27 628.11 583.89 615.27 596.29 603.29 C 623.54 576.70 654.93 553.84 690.21 539.12 C 722.99 525.03 759.06 516.98 794.82 520.73 C 804.63 521.93 814.66 522.65 824.06 525.91 C 830.92 528.21 833.63 536.69 831.49 543.16 C 828.20 554.60 822.33 565.10 816.21 575.24 C 799.64 601.64 780.11 626.11 758.89 648.91 C 738.78 670.81 717.27 691.43 694.52 710.57 C 664.13 735.94 631.06 759.26 593.43 772.47 C 574.33 779.30 554.06 782.42 533.82 782.75 C 532.70 785.86 530.87 788.63 529.42 791.60 C 525.61 799.18 522.92 807.27 520.74 815.46 C 561.17 817.43 601.66 814.37 642.08 816.70 C 674.07 817.95 705.98 820.65 737.97 822.07 C 763.99 823.43 790.04 824.65 816.10 825.01 C 817.65 824.99 820.06 825.93 819.76 827.84 C 819.73 829.68 817.72 830.60 816.10 830.41 C 786.05 829.87 756.02 828.58 726.01 826.92 C 692.00 825.25 658.05 822.26 623.99 821.59 C 602.64 820.97 581.29 821.94 559.94 822.45 C 543.30 823.23 526.63 823.80 509.97 823.36 C 488.32 822.79 466.66 822.28 445.01 821.90 C 413.01 822.08 381.01 821.15 349.01 821.76 C 307.99 822.93 266.97 824.49 225.93 824.43 C 223.73 824.73 222.00 823.46 220.51 822.03 C 221.50 820.72 222.04 818.47 224.09 818.69 C 248.05 818.42 272.03 818.27 295.96 816.82 C 335.63 814.53 375.38 815.68 415.08 815.04 C 432.75 814.20 450.44 814.12 468.12 814.19 C 468.49 802.45 465.65 790.93 461.36 780.09 C 435.91 779.83 410.33 779.87 385.09 776.13 C 351.31 771.13 317.80 760.74 289.10 741.85 C 271.28 730.14 255.36 715.67 241.30 699.67 C 230.39 687.04 219.76 674.00 211.51 659.44 C 207.18 651.61 203.56 642.57 205.29 633.48 C 206.53 626.50 211.66 620.78 217.85 617.63 C 225.62 613.67 234.34 612.07 242.95 611.26 C 282.75 608.09 323.40 615.32 359.47 632.51 C 378.86 641.77 396.33 654.49 413.17 667.72 C 426.67 678.45 439.99 689.67 450.80 703.20 C 465.82 722.04 477.66 743.51 484.87 766.54 C 484.71 684.81 484.96 603.08 484.82 521.36 C 471.52 521.88 458.10 521.32 445.00 518.86 C 436.89 517.40 429.14 513.50 423.77 507.16 C 415.55 497.68 411.40 485.37 409.27 473.18 C 407.80 464.10 408.56 454.60 412.11 446.07 C 394.31 452.25 374.40 453.88 356.37 447.73 C 341.61 442.83 329.36 431.74 321.87 418.23 C 311.53 399.73 308.44 377.90 310.13 356.97 C 311.25 346.00 313.26 334.69 319.24 325.22 C 327.49 312.32 341.96 304.57 356.76 301.91 C 365.90 299.88 375.31 300.07 384.61 300.20 C 373.31 292.82 366.25 280.37 362.66 267.61 C 357.94 249.93 360.14 230.31 369.29 214.40 C 377.65 200.20 391.38 189.98 406.12 183.11 M 437.40 181.69 C 417.93 185.82 398.43 193.82 384.48 208.45 C 365.11 228.35 363.51 262.67 380.64 284.42 C 387.92 293.47 398.25 299.27 408.24 304.84 C 412.83 307.50 417.91 309.26 422.25 312.35 C 420.87 313.59 419.45 314.79 417.99 315.93 C 412.86 314.34 408.28 311.26 402.97 310.22 C 390.46 307.72 377.54 306.81 364.85 308.40 C 351.73 310.12 338.36 315.22 329.55 325.47 C 322.12 333.80 319.86 345.23 318.75 356.00 C 316.82 376.11 319.86 397.17 330.23 414.75 C 338.17 428.12 351.60 438.13 366.83 441.46 C 383.03 445.17 400.08 442.40 415.42 436.53 C 421.20 434.47 425.72 430.18 430.30 426.27 C 438.38 419.17 445.80 411.34 454.14 404.54 C 455.19 405.29 456.23 406.07 457.25 406.88 C 456.39 408.13 455.59 409.43 454.57 410.57 C 444.97 420.59 434.91 430.17 424.58 439.42 C 418.46 449.33 415.41 461.58 417.94 473.12 C 419.89 483.07 423.42 493.08 430.20 500.81 C 434.88 506.21 441.61 509.50 448.60 510.67 C 462.29 513.07 476.32 513.90 490.17 512.53 C 506.25 510.75 522.69 505.02 534.01 493.02 C 541.66 485.11 545.64 473.95 544.83 462.99 C 543.40 445.63 536.81 429.22 529.19 413.74 C 528.09 411.52 526.90 408.81 528.39 406.48 C 530.11 404.74 532.87 406.14 533.94 407.94 C 537.89 414.39 538.84 422.38 543.60 428.36 C 554.98 440.82 568.66 452.14 585.16 456.84 C 602.11 461.85 620.80 459.34 636.40 451.27 C 648.27 445.04 658.03 434.96 663.93 422.92 C 672.65 406.43 673.73 386.47 668.35 368.76 C 665.09 357.82 659.22 346.80 649.03 340.93 C 640.98 335.95 631.24 335.01 621.99 335.42 C 606.16 335.78 590.34 336.17 574.54 337.23 C 573.61 335.75 572.69 334.25 571.82 332.75 C 574.86 330.20 579.00 331.32 582.57 330.29 C 590.15 328.46 597.46 325.64 604.59 322.49 C 616.01 317.34 627.01 310.84 636.14 302.18 C 644.08 294.46 648.56 283.77 650.55 273.02 C 652.29 263.63 648.56 254.52 644.79 246.12 C 638.05 231.34 627.70 217.37 612.69 210.24 C 585.09 196.92 549.43 205.53 529.69 228.64 C 520.18 239.32 513.99 252.65 510.68 266.49 C 510.03 268.47 509.70 270.84 507.97 272.21 C 506.05 272.80 504.17 271.01 504.94 269.07 C 506.44 262.76 508.72 256.55 508.93 250.00 C 509.18 241.33 508.24 232.64 506.46 224.15 C 503.42 209.78 497.62 194.44 484.59 186.29 C 470.47 177.80 453.00 178.89 437.40 181.69 M 773.82 532.05 C 758.45 536.02 742.42 536.31 727.05 540.29 C 703.04 546.00 678.26 551.02 656.80 563.79 C 636.52 576.04 617.06 590.91 604.09 611.06 C 593.63 627.61 581.22 642.79 569.61 658.52 C 562.63 668.22 554.30 676.98 548.54 687.53 C 541.16 700.92 534.56 714.78 529.43 729.20 C 524.56 743.95 520.84 759.11 518.13 774.40 C 528.75 775.66 539.50 774.10 550.02 772.61 C 569.74 769.63 587.77 760.56 604.96 750.88 C 618.65 742.94 632.27 734.87 645.89 726.81 C 656.25 720.65 667.12 715.40 677.74 709.70 C 702.07 696.47 722.11 676.97 741.60 657.62 C 767.71 631.05 792.39 602.75 812.11 571.04 C 816.93 563.30 821.52 555.29 824.36 546.59 C 825.19 543.57 826.44 539.65 823.83 537.15 C 820.23 533.63 814.95 532.74 810.20 531.86 C 798.19 530.06 785.69 528.75 773.82 532.05 M 225.46 620.62 C 220.25 622.38 215.28 625.60 212.46 630.42 C 209.63 635.61 210.55 641.93 212.92 647.10 C 217.82 658.10 225.99 667.19 234.05 675.97 C 245.57 687.09 256.54 698.87 269.12 708.83 C 279.14 716.43 290.29 722.36 300.96 728.99 C 316.33 738.00 331.34 747.70 347.35 755.58 C 367.30 765.56 389.86 769.32 412.02 769.16 C 428.40 769.03 444.68 771.21 461.07 771.16 C 467.33 771.05 473.71 771.82 479.90 770.52 C 479.75 764.80 476.43 759.90 474.09 754.88 C 466.82 741.65 458.51 728.84 448.39 717.59 C 431.83 702.16 417.65 684.32 400.49 669.51 C 390.66 660.91 380.95 652.03 369.82 645.11 C 358.77 637.84 346.56 632.52 334.10 628.18 C 309.70 619.75 283.79 615.63 257.98 616.18 C 247.04 616.35 235.86 616.95 225.46 620.62 M 477.88 777.56 C 477.79 778.31 477.61 779.80 477.52 780.55 C 473.79 780.35 470.06 780.20 466.34 779.99 C 472.27 790.27 473.56 802.54 473.49 814.21 C 477.23 814.31 480.98 814.37 484.73 814.45 C 484.83 802.72 484.58 790.98 484.94 779.25 C 482.93 780.29 480.75 780.77 478.49 780.76 C 478.28 779.68 478.08 778.62 477.88 777.56 M 510.42 782.20 C 510.93 793.27 510.42 804.36 510.68 815.45 C 512.26 815.40 513.85 815.36 515.45 815.30 C 518.24 803.85 522.33 792.39 529.41 782.86 C 523.09 783.12 516.63 783.66 510.42 782.20 Z" />
<path fill="#3B3535" opacity="1.00" d=" M 451.37 190.20 C 452.96 190.75 454.59 191.34 455.69 192.70 C 454.74 192.76 452.83 192.87 451.88 192.93 C 451.57 192.61 450.94 191.96 450.62 191.64 C 450.81 191.28 451.19 190.56 451.37 190.20 Z" />
<path fill="#3B3535" opacity="1.00" d=" M 418.80 195.96 C 419.67 195.43 420.57 194.95 421.50 194.53 C 422.93 197.38 424.09 200.38 424.93 203.46 C 426.17 205.12 422.95 206.95 422.14 205.37 C 420.20 202.65 419.31 199.23 418.80 195.96 Z" />
<path fill="#3B3535" opacity="1.00" d=" M 436.96 204.25 C 439.82 205.05 443.79 205.35 445.21 208.30 C 443.53 210.73 440.47 208.05 438.30 207.60 C 436.52 207.23 436.71 205.62 436.96 204.25 Z" />
<path fill="#3B3535" opacity="1.00" d=" M 634.15 263.88 C 636.92 263.49 642.53 265.11 640.78 268.77 C 638.04 268.99 632.58 267.44 634.15 263.88 Z" />
<path fill="#3B3535" opacity="1.00" d=" M 477.41 278.43 C 480.70 277.19 483.86 280.22 484.83 283.17 C 487.01 289.43 488.53 295.91 490.66 302.20 C 491.67 306.04 493.53 310.16 492.14 314.14 C 491.20 317.18 488.09 319.30 484.93 319.12 C 481.28 317.84 480.00 313.81 478.69 310.57 C 476.13 303.19 473.02 295.87 472.11 288.06 C 471.49 284.14 473.38 279.62 477.41 278.43 Z" />
<path fill="#3B3535" opacity="1.00" d=" M 529.37 283.66 C 532.22 282.81 535.69 282.76 538.01 284.91 C 539.38 286.06 539.91 288.11 538.87 289.68 C 535.10 296.99 528.96 302.69 524.37 309.46 C 522.67 311.98 520.34 314.67 517.09 314.89 C 513.12 314.61 509.22 311.23 509.01 307.18 C 509.74 302.92 512.54 299.42 514.96 295.97 C 518.70 290.88 523.10 285.57 529.37 283.66 Z" />
<path fill="#3B3535" opacity="1.00" d=" M 481.30 329.35 C 485.30 323.29 492.40 320.34 499.16 318.52 C 505.69 316.66 512.85 319.99 516.61 325.43 C 520.47 331.07 520.37 338.39 519.30 344.86 C 518.06 353.11 512.23 359.94 505.41 364.35 C 496.82 370.18 483.76 366.90 478.81 357.79 C 473.74 363.31 466.33 365.43 459.92 368.92 C 455.68 370.91 451.87 373.67 447.84 376.02 C 443.26 378.90 436.48 373.21 439.07 368.24 C 442.69 361.75 449.68 358.24 456.06 355.01 C 462.43 352.08 469.42 348.71 476.61 350.58 C 475.23 343.23 477.32 335.57 481.30 329.35 M 495.67 331.92 C 501.98 334.32 507.43 338.44 513.49 341.35 C 513.07 339.94 513.12 338.15 511.61 337.39 C 507.94 334.97 503.99 332.99 500.60 330.17 C 498.94 330.72 497.28 331.26 495.67 331.92 M 488.50 337.93 C 493.23 340.35 497.78 343.12 502.41 345.74 C 504.94 346.99 507.47 348.30 509.73 350.00 C 510.54 348.40 511.37 346.80 512.19 345.21 C 505.29 342.08 498.47 338.54 492.24 334.23 C 490.97 335.44 489.72 336.67 488.50 337.93 M 486.05 342.17 C 485.96 342.88 485.78 344.29 485.69 345.00 C 491.35 348.82 497.17 352.40 502.61 356.53 C 504.22 355.48 505.68 354.25 507.15 353.01 C 499.89 350.27 493.14 345.97 487.24 340.96 C 486.94 341.26 486.34 341.87 486.05 342.17 M 485.41 350.42 C 485.97 351.85 485.94 353.72 487.30 354.72 C 490.55 357.05 494.34 359.58 498.56 358.68 C 494.25 355.81 489.71 353.31 485.41 350.42 Z" />
<path fill="#3B3535" opacity="1.00" d=" M 542.42 320.63 C 546.96 318.43 553.55 320.50 554.03 326.05 C 554.61 331.95 548.70 334.93 544.36 337.35 C 539.91 339.73 534.50 343.19 529.43 340.55 C 523.70 337.90 524.75 328.55 530.15 326.12 C 534.11 324.04 538.18 322.11 542.42 320.63 Z" />
<path fill="#3B3535" opacity="1.00" d=" M 441.43 321.50 C 447.77 319.24 454.35 322.35 460.61 323.52 C 464.83 324.81 470.63 326.03 471.83 330.99 C 471.92 334.67 469.26 339.58 465.02 339.08 C 459.95 338.57 455.18 336.66 450.23 335.61 C 446.02 334.43 441.51 334.32 437.48 332.55 C 434.32 328.98 437.38 323.00 441.43 321.50 Z" />
<path fill="#3B3535" opacity="1.00" d=" M 519.53 354.31 C 522.64 352.53 526.58 353.50 529.22 355.71 C 532.76 358.55 535.81 361.95 538.76 365.39 C 540.47 367.52 542.44 370.01 542.02 372.94 C 541.63 377.42 536.30 380.56 532.20 378.65 C 527.60 376.57 524.34 372.58 520.74 369.20 C 518.66 367.11 516.17 365.05 515.59 362.00 C 514.86 358.88 517.04 355.95 519.53 354.31 Z" />
<path fill="#3B3535" opacity="1.00" d=" M 328.92 362.88 C 329.17 362.43 329.65 361.53 329.89 361.08 C 332.62 362.27 335.32 363.54 337.94 364.96 C 337.53 365.49 336.72 366.55 336.31 367.08 C 333.64 366.07 331.04 364.83 328.92 362.88 Z" />
<path fill="#3B3535" opacity="1.00" d=" M 490.61 370.66 C 492.34 368.77 494.92 368.18 497.25 367.35 C 499.57 368.94 502.47 370.77 502.34 373.99 C 502.46 379.66 501.90 385.32 501.88 391.00 C 501.76 395.09 501.21 400.01 497.50 402.51 C 493.42 405.34 487.31 402.44 486.35 397.71 C 485.64 393.16 486.81 388.59 486.87 384.03 C 487.25 379.46 487.10 374.14 490.61 370.66 Z" />
<path fill="#3B3535" opacity="1.00" d=" M 328.02 382.22 C 331.34 380.26 335.04 378.81 338.84 378.18 C 340.52 377.76 341.62 380.94 339.50 381.26 C 336.10 382.93 332.57 384.40 328.89 385.30 C 328.52 384.29 328.24 383.26 328.02 382.22 Z" />
<path fill="#3B3535" opacity="1.00" d=" M 334.52 403.32 C 335.06 402.00 335.96 400.96 337.06 400.09 C 337.54 400.62 338.51 401.69 338.99 402.23 C 337.53 402.71 336.02 403.03 334.52 403.32 Z" />
<path fill="#3B3535" opacity="1.00" d=" M 651.71 404.88 C 652.30 404.47 653.48 403.65 654.07 403.24 C 657.62 404.34 660.69 406.59 663.34 409.15 C 662.58 409.83 661.81 410.47 661.01 411.09 C 657.61 409.55 653.95 408.02 651.71 404.88 Z" />
<path fill="#3B3535" opacity="1.00" d=" M 262.79 410.05 C 261.00 407.15 264.83 403.35 267.77 404.87 C 271.09 406.48 273.52 409.38 276.30 411.74 C 279.60 414.91 283.20 417.87 285.86 421.63 C 287.58 424.55 284.62 426.94 282.19 427.96 C 277.59 425.75 274.47 421.56 270.74 418.23 C 268.11 415.49 264.81 413.31 262.79 410.05 Z" />
<path fill="#3B3535" opacity="1.00" d=" M 650.36 418.44 C 652.50 418.89 657.01 419.95 655.64 422.91 C 653.17 422.41 649.81 421.98 648.99 419.17 C 649.33 418.98 650.02 418.62 650.36 418.44 Z" />
<path fill="#3B3535" opacity="1.00" d=" M 750.42 422.39 C 752.31 420.97 754.78 421.85 756.87 422.28 C 759.07 422.94 761.95 423.76 762.52 426.35 C 763.11 429.23 759.94 432.00 757.15 430.92 C 754.23 430.14 750.28 429.86 749.00 426.63 C 748.44 425.05 749.18 423.38 750.42 422.39 Z" />
<path fill="#3B3535" opacity="1.00" d=" M 640.84 436.74 C 641.36 436.28 642.41 435.37 642.93 434.91 C 643.47 435.19 644.56 435.74 645.11 436.02 C 645.17 436.79 645.25 437.55 645.33 438.33 C 643.57 438.56 641.94 438.19 640.84 436.74 Z" />
<path fill="#3B3535" opacity="1.00" d=" M 464.63 487.09 C 465.90 485.78 467.42 484.82 469.26 484.54 C 468.66 486.02 467.97 487.48 467.18 488.88 C 466.54 488.43 465.27 487.54 464.63 487.09 Z" />
<path fill="#3B3535" opacity="1.00" d=" M 492.59 489.57 C 496.68 488.58 497.08 493.18 497.85 496.03 C 497.58 497.39 496.56 498.37 495.12 498.18 C 493.52 495.60 492.86 492.56 492.59 489.57 Z" />
<path fill="#3B3535" opacity="1.00" d=" M 503.49 492.44 C 505.54 491.73 506.30 494.05 507.09 495.43 C 506.47 495.73 505.23 496.31 504.62 496.60 C 503.96 495.36 502.17 493.83 503.49 492.44 Z" />
<path fill="#3B3535" opacity="1.00" d=" M 477.59 496.97 C 478.23 496.77 479.52 496.37 480.16 496.18 C 480.60 498.14 480.09 500.04 479.02 501.72 C 478.06 500.29 477.50 498.69 477.59 496.97 Z" />
<path fill="#3B3535" opacity="1.00" d=" M 247.55 512.19 C 248.75 505.60 254.01 499.66 260.87 498.94 C 268.60 497.56 276.49 503.20 277.81 510.90 C 280.45 524.21 273.56 536.64 270.50 549.22 C 277.61 555.21 284.30 561.69 291.40 567.70 C 293.74 569.92 296.59 571.85 297.97 574.87 C 297.97 578.58 293.47 581.36 290.48 578.68 C 281.03 571.35 272.63 562.73 264.20 554.26 C 258.01 560.44 250.70 566.21 241.93 567.98 C 235.88 569.32 228.82 568.17 224.42 563.53 C 216.31 554.94 220.46 538.37 231.85 534.92 C 239.26 532.48 247.04 535.18 253.96 537.90 C 249.03 530.41 245.44 521.24 247.55 512.19 M 260.42 508.43 C 254.87 510.85 254.63 518.05 256.14 523.09 C 258.05 528.80 261.06 534.20 264.86 538.87 C 267.61 530.98 271.18 522.78 269.84 514.24 C 269.20 510.01 264.63 506.36 260.42 508.43 M 229.03 554.86 C 230.31 558.42 234.41 560.01 237.96 559.62 C 245.08 558.95 251.27 554.70 256.47 550.08 C 250.31 547.19 244.17 543.08 237.09 543.40 C 231.62 543.53 227.21 549.64 229.03 554.86 Z" />
<path fill="#3B3535" opacity="1.00" d=" M 775.94 549.92 C 778.41 544.75 780.46 539.27 783.96 534.69 C 785.00 534.86 787.77 535.15 786.94 536.84 C 781.36 549.91 775.71 562.96 770.34 576.13 C 778.84 571.96 787.59 568.31 795.92 563.79 C 799.35 561.97 802.61 559.80 806.31 558.55 C 807.40 559.81 809.04 561.79 807.03 563.08 C 794.89 571.05 781.39 576.62 768.13 582.41 C 765.34 587.28 764.72 593.53 760.22 597.37 C 759.48 596.54 758.68 595.75 758.06 594.85 C 758.29 591.43 760.14 588.43 761.42 585.33 C 744.63 592.06 727.67 598.35 710.97 605.28 C 708.47 613.40 706.78 621.84 703.20 629.58 C 702.35 629.33 700.67 628.83 699.83 628.58 C 699.70 626.31 700.16 624.09 700.86 621.95 C 702.36 617.11 703.54 612.17 705.21 607.38 C 683.36 616.15 661.63 625.45 641.35 637.51 C 640.25 642.68 639.64 648.01 637.81 652.99 C 637.10 655.54 632.93 654.28 633.31 651.84 C 633.82 648.16 634.92 644.58 635.76 640.97 C 626.56 646.86 617.93 653.56 609.03 659.88 C 607.56 664.62 606.77 669.84 603.50 673.77 C 602.44 674.72 601.35 674.70 600.25 673.73 C 600.48 670.47 601.97 667.49 602.80 664.37 C 589.75 673.96 576.61 683.63 565.60 695.61 C 556.93 704.76 549.20 714.80 542.43 725.44 C 541.34 727.05 540.35 728.76 538.93 730.12 C 537.86 731.55 534.40 729.66 535.89 727.90 C 543.19 713.62 553.29 700.93 564.33 689.37 C 576.38 676.81 590.71 666.82 604.78 656.69 C 608.91 639.03 614.04 621.54 621.13 604.83 C 623.27 600.17 625.54 595.52 628.43 591.29 C 629.15 591.41 630.59 591.65 631.31 591.77 C 629.87 596.84 627.63 601.61 625.73 606.51 C 619.73 621.37 615.27 636.79 611.00 652.22 C 619.40 645.94 627.82 639.57 636.93 634.36 C 641.69 615.33 648.94 597.00 657.32 579.29 C 659.39 575.38 661.11 571.11 664.14 567.82 C 664.92 567.84 666.49 567.88 667.27 567.90 C 666.36 572.30 663.88 576.15 662.23 580.29 C 654.68 596.62 648.41 613.50 643.15 630.69 C 663.00 618.94 684.44 610.26 705.78 601.67 C 707.39 601.28 707.52 599.43 708.07 598.15 C 710.72 589.45 714.27 581.07 717.56 572.61 C 720.96 564.17 724.23 555.61 728.99 547.82 C 729.67 545.95 731.76 546.90 733.20 546.84 C 732.54 550.01 731.31 553.02 729.98 555.98 C 723.73 570.06 718.47 584.54 713.23 599.02 C 729.90 591.66 747.18 585.73 763.94 578.57 C 767.51 568.84 771.67 559.35 775.94 549.92 Z" />
<path fill="#3B3535" opacity="1.00" d=" M 735.23 625.15 C 746.59 619.09 757.85 612.87 769.28 606.95 C 770.42 607.87 771.52 608.83 772.57 609.87 C 768.65 613.82 763.34 615.78 758.61 618.51 C 729.82 634.18 700.92 649.65 671.87 664.85 C 639.43 681.97 606.68 699.05 577.65 721.70 C 569.80 727.80 562.22 734.24 554.85 740.92 C 551.40 744.00 548.25 747.44 544.50 750.17 C 543.48 749.12 541.08 748.43 542.16 746.62 C 543.75 743.80 546.36 741.80 548.64 739.57 C 575.32 714.32 606.25 694.01 638.54 676.68 C 670.65 659.27 703.15 642.61 735.23 625.15 Z" />
<path fill="#3B3535" opacity="1.00" d=" M 227.68 642.18 C 225.52 641.59 225.64 637.98 227.94 637.65 C 230.95 637.07 234.03 637.94 237.06 638.09 C 258.09 639.71 278.62 645.10 298.68 651.40 C 321.51 658.69 343.79 667.58 365.61 677.44 C 381.00 684.61 396.22 692.23 410.58 701.31 C 425.11 710.82 438.60 722.32 448.83 736.43 C 450.79 738.60 448.81 740.70 446.99 742.10 C 443.13 738.21 439.97 733.70 436.22 729.71 C 423.97 716.24 408.86 705.68 392.96 696.94 C 372.24 685.48 350.54 675.89 328.47 667.34 C 298.71 655.98 267.99 645.84 236.07 643.16 C 233.28 642.82 230.38 643.06 227.68 642.18 Z" />
<path fill="#3B3535" opacity="1.00" d=" M 714.11 660.02 C 714.95 659.91 715.80 659.80 716.65 659.71 C 716.85 660.19 717.25 661.13 717.45 661.61 C 717.32 662.03 717.05 662.89 716.92 663.32 C 715.99 663.29 715.07 663.25 714.16 663.23 C 714.15 662.43 714.13 660.82 714.11 660.02 Z" />
<path fill="#3B3535" opacity="1.00" d=" M 241.72 668.88 C 242.46 667.83 243.21 666.80 243.97 665.78 C 293.37 690.92 343.69 714.54 396.02 732.96 C 417.31 740.52 438.96 747.38 459.17 757.59 C 461.82 759.07 464.79 760.19 466.88 762.48 C 467.91 763.98 465.95 765.28 464.79 765.86 C 463.16 765.44 461.71 764.55 460.23 763.81 C 442.89 754.39 424.09 748.17 405.55 741.63 C 352.83 723.81 302.03 700.79 252.43 675.66 C 248.69 673.70 244.70 671.98 241.72 668.88 Z" />
<path fill="#3B3535" opacity="1.00" d=" M 693.65 669.64 C 696.14 666.68 699.35 671.76 696.76 673.77 C 694.26 676.27 691.44 671.59 693.65 669.64 Z" />
<path fill="#3B3535" opacity="1.00" d=" M 666.68 688.71 C 667.92 686.90 670.93 688.05 670.88 690.14 C 671.20 691.82 669.10 692.47 668.15 693.46 C 667.04 692.23 664.93 690.34 666.68 688.71 Z" />
<path fill="#3B3535" opacity="1.00" d=" M 617.66 724.41 C 616.87 722.57 618.86 721.52 619.97 720.51 C 620.35 721.73 622.13 723.08 621.32 724.42 C 620.85 726.12 617.90 726.41 617.66 724.41 Z" />
<path fill="#3B3535" opacity="1.00" d=" M 599.09 735.86 C 598.55 733.83 601.02 733.30 602.26 732.38 C 603.54 733.68 605.12 735.66 603.34 737.31 C 602.04 739.21 599.12 737.93 599.09 735.86 Z" />
</g>
</g></svg>