<svg xmlns="http://www.w3.org/2000/svg" viewBox="0 0 1024 1024" version="1.1">
<g id="Parent-Group"><g id="Group-rgba(0,0,0,0)" fill="rgba(0,0,0,0)">
<path fill="rgba(0,0,0,0)" opacity="1.00" d=" M 0.00 0.00 L 1024.00 0.00 L 1024.00 908.25 C 918.32 908.37 812.65 908.94 706.97 908.83 C 694.64 908.68 682.29 909.15 669.97 908.52 C 661.29 908.55 652.60 908.29 643.94 908.82 C 654.57 898.90 658.83 884.12 660.56 870.10 C 662.71 846.64 663.11 823.05 663.43 799.50 C 664.25 738.99 664.37 678.47 664.51 617.95 C 664.58 587.26 666.73 556.62 667.71 525.95 C 668.31 501.97 669.00 477.92 666.88 454.00 C 664.69 428.53 660.40 402.96 650.80 379.15 C 643.10 360.47 631.63 342.11 613.70 331.80 C 607.20 328.07 600.06 325.42 592.60 324.48 C 595.29 320.16 596.31 315.06 596.11 310.01 C 595.84 290.97 595.33 271.93 594.61 252.91 C 594.36 243.15 591.40 232.72 583.54 226.35 C 576.25 219.78 565.83 218.39 556.43 219.77 C 556.51 205.83 556.50 191.89 556.45 177.96 C 556.15 174.19 558.39 170.27 562.08 169.09 C 565.99 167.93 570.11 168.06 574.13 167.52 C 597.89 165.15 621.68 163.13 645.45 160.79 C 644.15 141.10 642.72 121.41 641.10 101.74 C 631.35 102.01 621.65 103.43 611.92 104.23 C 588.93 106.21 565.97 108.50 542.97 110.40 C 523.63 109.82 504.28 108.98 484.95 108.12 C 483.70 108.07 482.48 108.23 481.26 108.43 C 481.35 145.62 481.28 182.81 481.22 220.00 C 473.43 218.73 465.06 219.04 457.95 222.77 C 450.84 226.72 445.61 233.80 443.67 241.68 C 441.83 249.32 442.12 257.23 441.89 265.03 C 441.73 280.35 440.84 295.66 440.74 310.99 C 440.55 316.32 441.91 321.87 445.78 325.73 C 444.02 326.03 442.28 326.36 440.57 326.85 C 424.60 331.35 409.76 340.39 399.36 353.44 C 384.61 371.74 378.20 395.20 375.68 418.20 C 373.46 439.69 373.19 461.33 372.18 482.90 C 371.13 513.91 371.00 544.93 370.71 575.95 C 369.90 671.64 369.51 767.33 368.84 863.03 C 368.73 873.65 369.53 884.79 374.78 894.27 C 377.80 899.82 382.29 904.51 387.71 907.75 C 388.18 908.08 389.11 908.73 389.57 909.06 C 368.72 908.37 347.89 909.58 327.04 909.27 C 280.70 909.13 234.36 909.45 188.02 909.26 C 186.23 909.30 184.35 910.31 183.71 912.07 C 183.29 914.50 185.63 916.53 187.97 916.27 C 263.72 916.19 339.47 916.43 415.22 915.88 C 411.78 923.52 412.49 933.33 418.50 939.50 C 426.00 947.49 436.84 950.99 447.13 953.81 C 475.58 961.31 504.87 964.95 534.07 968.15 C 563.62 971.15 593.29 972.94 622.98 973.56 C 670.65 974.52 718.30 976.29 765.98 976.99 C 818.98 977.70 871.99 977.94 924.98 979.21 C 932.63 979.28 940.33 979.60 947.93 978.51 C 949.87 978.27 951.30 976.80 953.00 975.97 C 955.56 975.67 958.16 975.80 960.75 975.65 C 960.61 974.48 960.22 973.26 958.90 973.04 C 939.26 966.58 919.10 961.88 898.99 957.12 C 873.43 951.27 847.82 945.59 822.06 940.70 C 802.96 937.21 783.96 933.21 764.92 929.42 C 742.75 924.82 720.38 921.14 698.26 916.39 L 697.01 915.74 C 806.01 915.70 915.00 915.39 1024.00 915.19 L 1024.00 1024.00 L 0.00 1024.00 L 0.00 916.05 C 32.32 916.09 64.66 916.27 96.97 916.10 C 101.18 915.46 100.31 909.01 96.12 909.22 C 64.08 909.11 32.04 909.12 0.00 909.11 L 0.00 0.00 M 676.48 202.85 C 669.78 203.18 663.10 203.87 656.45 204.70 C 654.66 204.84 653.26 206.27 652.88 207.97 C 652.69 210.65 655.57 212.63 658.08 211.95 C 677.90 209.55 698.02 209.04 717.92 210.81 C 720.52 210.95 722.87 207.81 721.36 205.48 C 720.67 203.77 718.69 203.50 717.11 203.31 C 703.59 202.26 690.01 202.04 676.48 202.85 M 309.37 205.37 C 306.41 206.74 307.07 211.13 310.01 212.05 C 328.02 217.41 345.87 223.46 364.13 227.92 C 368.20 227.65 368.48 221.05 364.32 220.62 C 347.38 216.24 330.74 210.79 314.03 205.63 C 312.52 205.26 310.82 204.40 309.37 205.37 M 654.30 256.03 C 652.38 257.20 652.02 259.94 653.56 261.57 C 656.71 263.50 660.61 263.29 664.03 264.52 C 687.70 271.75 708.72 285.75 727.32 301.79 C 729.59 303.82 733.70 302.02 733.50 298.91 C 732.90 296.59 730.68 295.34 729.00 293.86 C 709.12 277.34 686.70 262.89 661.44 256.35 C 659.10 256.02 656.55 254.79 654.30 256.03 M 347.50 267.84 C 335.04 269.07 322.50 270.37 310.29 273.25 C 306.37 274.99 308.91 281.29 312.97 280.08 C 331.42 276.45 350.20 274.54 369.00 273.95 C 370.97 273.75 373.33 274.41 374.99 273.02 C 376.63 271.79 376.96 269.04 375.42 267.61 C 374.12 266.04 371.81 266.62 370.04 266.60 C 362.51 266.76 355.00 267.12 347.50 267.84 Z" />
<path fill="rgba(0,0,0,0)" opacity="1.00" d=" M 563.02 332.67 C 570.62 331.98 578.50 331.49 585.48 328.13 C 586.71 332.48 591.70 331.38 595.11 332.08 C 605.20 334.05 614.37 339.51 621.74 346.56 C 634.70 359.10 642.67 375.82 648.27 392.73 C 658.34 424.40 661.42 457.88 661.05 490.98 C 661.19 517.97 659.80 544.94 658.82 571.91 C 657.16 601.90 657.52 631.95 657.35 661.98 C 657.34 683.19 657.12 704.40 657.17 725.61 C 620.84 723.32 584.40 723.92 548.04 725.05 C 517.71 725.46 487.38 724.95 457.06 724.34 C 433.34 724.00 409.57 723.67 385.88 725.20 C 382.23 725.37 380.21 729.87 382.04 732.91 C 383.63 735.69 387.25 735.15 389.98 735.09 C 411.64 734.14 433.34 733.86 455.02 734.63 C 480.67 734.95 506.32 735.81 531.98 735.62 C 559.97 735.53 587.95 733.70 615.95 734.36 C 629.64 734.51 643.36 735.43 657.04 734.76 C 657.16 745.70 656.85 756.65 656.96 767.60 C 656.82 779.46 656.68 791.33 656.51 803.19 C 637.35 801.92 618.15 801.85 598.96 801.81 C 554.99 801.58 511.02 801.40 467.06 801.94 C 440.39 802.58 413.72 801.85 387.06 801.09 C 383.74 800.46 379.46 803.16 380.50 806.90 C 380.73 809.67 383.56 810.67 385.95 810.71 C 410.63 811.24 435.31 812.17 460.00 811.72 C 521.66 810.65 583.32 811.37 644.98 811.35 C 648.70 811.34 652.44 811.34 656.14 810.89 C 656.21 829.99 655.10 849.09 653.67 868.13 C 652.48 881.82 647.83 895.95 637.50 905.48 C 636.19 906.55 635.02 908.40 633.08 908.12 C 570.72 906.84 508.34 906.51 445.97 906.96 C 431.46 907.03 416.80 908.31 402.41 905.80 C 394.55 904.38 387.03 900.18 382.52 893.47 C 377.32 885.71 376.07 876.13 375.86 867.00 C 375.94 831.35 376.37 795.71 376.49 760.06 C 376.91 707.05 376.61 654.04 377.32 601.03 C 377.82 544.63 378.43 488.20 381.67 431.88 C 382.80 409.12 386.66 385.54 399.03 365.97 C 407.61 351.90 421.14 341.06 436.66 335.56 C 442.60 332.92 449.41 333.01 455.15 329.89 C 466.92 332.30 479.00 333.18 491.01 334.02 C 502.46 334.82 513.92 333.89 525.36 333.44 C 537.91 333.21 550.49 333.74 563.02 332.67 M 423.14 377.09 C 416.90 386.49 412.80 397.14 409.66 407.94 C 403.21 429.63 401.57 452.42 401.53 474.95 C 401.53 476.96 401.38 479.03 402.04 480.98 C 403.82 483.54 408.75 482.60 408.79 479.18 C 408.61 455.21 409.91 430.84 417.23 407.84 C 421.11 395.41 426.32 382.83 435.47 373.34 C 434.72 375.79 433.26 377.93 432.15 380.22 C 425.48 393.85 420.83 408.41 417.29 423.14 C 412.52 442.03 411.73 461.61 411.56 481.00 C 411.47 485.08 418.59 485.20 418.89 481.20 C 418.93 472.16 419.11 463.11 419.78 454.09 C 421.11 432.65 426.73 411.64 434.74 391.77 C 439.17 380.90 445.93 371.18 453.31 362.13 C 451.21 358.87 448.50 355.89 445.09 353.99 C 436.51 360.30 428.88 368.08 423.14 377.09 M 526.36 422.38 C 522.79 423.65 523.21 429.07 527.08 429.50 C 530.59 429.52 534.25 429.00 537.60 430.43 C 543.00 432.52 546.43 438.89 544.73 444.52 C 543.47 447.98 539.17 449.61 535.82 448.36 C 529.72 446.32 525.18 441.48 520.72 437.09 C 517.65 435.26 513.53 440.01 516.16 442.74 C 520.41 447.83 525.91 452.11 532.09 454.61 C 538.15 456.98 546.08 455.78 549.87 450.08 C 554.10 443.75 552.46 434.93 547.83 429.25 C 542.69 423.18 533.97 420.93 526.36 422.38 Z" />
</g>
<g id="Group-000000" fill="#3B3535">
<path fill="#3B3535" opacity="1.00" d=" M 611.92 104.23 C 621.65 103.43 631.35 102.01 641.10 101.74 C 642.72 121.41 644.15 141.10 645.45 160.79 C 621.68 163.13 597.89 165.15 574.13 167.52 C 570.11 168.06 565.99 167.93 562.08 169.09 C 558.39 170.27 556.15 174.19 556.45 177.96 C 556.50 191.89 556.51 205.83 556.43 219.77 C 565.83 218.39 576.25 219.78 583.54 226.35 C 591.40 232.72 594.36 243.15 594.61 252.91 C 595.33 271.93 595.84 290.97 596.11 310.01 C 596.31 315.06 595.29 320.16 592.60 324.48 C 600.06 325.42 607.20 328.07 613.70 331.80 C 614.46 333.61 615.70 335.14 617.12 336.49 C 616.94 336.93 616.57 337.83 616.39 338.28 C 618.47 340.18 620.66 341.98 622.52 344.13 C 622.33 344.74 621.94 345.96 621.74 346.56 C 614.37 339.51 605.20 334.05 595.11 332.08 C 591.70 331.38 586.71 332.48 585.48 328.13 C 578.50 331.49 570.62 331.98 563.02 332.67 C 550.49 333.74 537.91 333.21 525.36 333.44 C 513.92 333.89 502.46 334.82 491.01 334.02 C 479.00 333.18 466.92 332.30 455.15 329.89 C 449.41 333.01 442.60 332.92 436.66 335.56 C 434.68 335.06 432.84 334.03 432.29 331.93 C 432.74 331.71 433.62 331.26 434.07 331.04 C 434.99 331.50 435.91 331.97 436.84 332.45 C 438.45 330.86 439.84 329.01 440.57 326.85 C 442.28 326.36 444.02 326.03 445.78 325.73 C 441.91 321.87 440.55 316.32 440.74 310.99 C 440.84 295.66 441.73 280.35 441.89 265.03 C 442.12 257.23 441.83 249.32 443.67 241.68 C 445.61 233.80 450.84 226.72 457.95 222.77 C 465.06 219.04 473.43 218.73 481.22 220.00 C 481.28 182.81 481.35 145.62 481.26 108.43 C 482.48 108.23 483.70 108.07 484.95 108.12 C 504.28 108.98 523.63 109.82 542.97 110.40 C 565.97 108.50 588.93 106.21 611.92 104.23 Z" />
<path fill="#3B3535" opacity="1.00" d=" M 676.48 202.85 C 690.01 202.04 703.59 202.26 717.11 203.31 C 718.69 203.50 720.67 203.77 721.36 205.48 C 722.87 207.81 720.52 210.95 717.92 210.81 C 698.02 209.04 677.90 209.55 658.08 211.95 C 655.57 212.63 652.69 210.65 652.88 207.97 C 653.26 206.27 654.66 204.84 656.45 204.70 C 663.10 203.87 669.78 203.18 676.48 202.85 Z" />
<path fill="#3B3535" opacity="1.00" d=" M 309.37 205.37 C 310.82 204.40 312.52 205.26 314.03 205.63 C 330.74 210.79 347.38 216.24 364.32 220.62 C 368.48 221.05 368.20 227.65 364.13 227.92 C 345.87 223.46 328.02 217.41 310.01 212.05 C 307.07 211.13 306.41 206.74 309.37 205.37 Z" />
<path fill="#3B3535" opacity="1.00" d=" M 347.50 267.84 C 355.00 267.12 362.51 266.76 370.04 266.60 C 371.81 266.62 374.12 266.04 375.42 267.61 C 376.96 269.04 376.63 271.79 374.99 273.02 C 373.33 274.41 370.97 273.75 369.00 273.95 C 350.20 274.54 331.42 276.45 312.97 280.08 C 308.91 281.29 306.37 274.99 310.29 273.25 C 322.50 270.37 335.04 269.07 347.50 267.84 Z" />
<path fill="#3B3535" opacity="1.00" d=" M 385.88 725.20 C 409.57 723.67 433.34 724.00 457.06 724.34 C 487.38 724.95 517.71 725.46 548.04 725.05 C 584.40 723.92 620.84 723.32 657.17 725.61 C 659.62 725.98 663.39 726.75 663.09 729.98 C 662.77 734.49 661.72 739.13 659.30 743.02 C 659.11 740.44 659.02 737.86 658.77 735.30 C 658.33 735.17 657.47 734.89 657.04 734.76 C 643.36 735.43 629.64 734.51 615.95 734.36 C 587.95 733.70 559.97 735.53 531.98 735.62 C 506.32 735.81 480.67 734.95 455.02 734.63 C 433.34 733.86 411.64 734.14 389.98 735.09 C 387.25 735.15 383.63 735.69 382.04 732.91 C 380.21 729.87 382.23 725.37 385.88 725.20 Z" />
<path fill="#3B3535" opacity="1.00" d=" M 659.24 765.98 C 660.84 767.51 660.96 769.81 661.15 771.89 C 661.55 779.58 661.68 787.29 661.97 794.99 C 661.87 796.64 662.64 798.09 663.43 799.50 C 663.11 823.05 662.71 846.64 660.56 870.10 C 658.83 884.12 654.57 898.90 643.94 908.82 C 652.60 908.29 661.29 908.55 669.97 908.52 C 682.29 909.15 694.64 908.68 706.97 908.83 C 812.65 908.94 918.32 908.37 1024.00 908.25 L 1024.00 915.19 C 915.00 915.39 806.01 915.70 697.01 915.74 C 603.09 915.37 509.15 915.78 415.22 915.88 C 339.47 916.43 263.72 916.19 187.97 916.27 C 185.63 916.53 183.29 914.50 183.71 912.07 C 184.35 910.31 186.23 909.30 188.02 909.26 C 234.36 909.45 280.70 909.13 327.04 909.27 C 347.89 909.58 368.72 908.37 389.57 909.06 C 389.11 908.73 388.18 908.08 387.71 907.75 C 389.25 906.70 390.78 905.65 392.12 904.36 C 395.47 905.20 399.06 908.22 402.41 905.80 C 416.80 908.31 431.46 907.03 445.97 906.96 C 508.34 906.51 570.72 906.84 633.08 908.12 C 635.02 908.40 636.19 906.55 637.50 905.48 C 647.83 895.95 652.48 881.82 653.67 868.13 C 655.10 849.09 656.21 829.99 656.14 810.89 C 652.44 811.34 648.70 811.34 644.98 811.35 C 583.32 811.37 521.66 810.65 460.00 811.72 C 435.31 812.17 410.63 811.24 385.95 810.71 C 383.56 810.67 380.73 809.67 380.50 806.90 C 379.46 803.16 383.74 800.46 387.06 801.09 C 413.72 801.85 440.39 802.58 467.06 801.94 C 511.02 801.40 554.99 801.58 598.96 801.81 C 618.15 801.85 637.35 801.92 656.51 803.19 C 656.68 791.33 656.82 779.46 656.96 767.60 C 658.66 771.24 657.79 775.32 658.32 779.19 C 659.67 774.91 658.55 770.36 659.24 765.98 Z" />
<path fill="#3B3535" opacity="1.00" d=" M 0.00 909.11 C 32.04 909.12 64.08 909.11 96.12 909.22 C 100.31 909.01 101.18 915.46 96.97 916.10 C 64.66 916.27 32.32 916.09 0.00 916.05 L 0.00 909.11 Z" />
</g>
<g id="Group-000000" fill="#3B3535">
<path fill="#3B3535" opacity="1.00" d=" M 654.30 256.03 C 656.55 254.79 659.10 256.02 661.44 256.35 C 686.70 262.89 709.12 277.34 729.00 293.86 C 730.68 295.34 732.90 296.59 733.50 298.91 C 733.70 302.02 729.59 303.82 727.32 301.79 C 708.72 285.75 687.70 271.75 664.03 264.52 C 660.61 263.29 656.71 263.50 653.56 261.57 C 652.02 259.94 652.38 257.20 654.30 256.03 Z" />
</g>
<g id="Group-000000" fill="#3B3535">
<path fill="#3B3535" opacity="1.00" d=" M 399.36 353.44 C 409.76 340.39 424.60 331.35 440.57 326.85 C 439.84 329.01 438.45 330.86 436.84 332.45 C 435.91 331.97 434.99 331.50 434.07 331.04 C 433.62 331.26 432.74 331.71 432.29 331.93 C 432.84 334.03 434.68 335.06 436.66 335.56 C 421.14 341.06 407.61 351.90 399.03 365.97 C 386.66 385.54 382.80 409.12 381.67 431.88 C 378.43 488.20 377.82 544.63 377.32 601.03 C 376.61 654.04 376.91 707.05 376.49 760.06 C 376.37 795.71 375.94 831.35 375.86 867.00 C 376.07 876.13 377.32 885.71 382.52 893.47 C 387.03 900.18 394.55 904.38 402.41 905.80 C 399.06 908.22 395.47 905.20 392.12 904.36 C 390.78 905.65 389.25 906.70 387.71 907.75 C 382.29 904.51 377.80 899.82 374.78 894.27 C 369.53 884.79 368.73 873.65 368.84 863.03 C 369.51 767.33 369.90 671.64 370.71 575.95 C 371.00 544.93 371.13 513.91 372.18 482.90 C 373.19 461.33 373.46 439.69 375.68 418.20 C 378.20 395.20 384.61 371.74 399.36 353.44 Z" />
</g>
<g id="Group-000000" fill="#3B3535">
<path fill="#3B3535" opacity="1.00" d=" M 613.70 331.80 C 631.63 342.11 643.10 360.47 650.80 379.15 C 660.40 402.96 664.69 428.53 666.88 454.00 C 669.00 477.92 668.31 501.97 667.71 525.95 C 666.73 556.62 664.58 587.26 664.51 617.95 C 664.37 678.47 664.25 738.99 663.43 799.50 C 662.64 798.09 661.87 796.64 661.97 794.99 C 661.68 787.29 661.55 779.58 661.15 771.89 C 660.96 769.81 660.84 767.51 659.24 765.98 C 658.55 770.36 659.67 774.91 658.32 779.19 C 657.79 775.32 658.66 771.24 656.96 767.60 C 656.85 756.65 657.16 745.70 657.04 734.76 C 657.47 734.89 658.33 735.17 658.77 735.30 C 659.02 737.86 659.11 740.44 659.30 743.02 C 661.72 739.13 662.77 734.49 663.09 729.98 C 663.39 726.75 659.62 725.98 657.17 725.61 C 657.12 704.40 657.34 683.19 657.35 661.98 C 657.52 631.95 657.16 601.90 658.82 571.91 C 659.80 544.94 661.19 517.97 661.05 490.98 C 661.42 457.88 658.34 424.40 648.27 392.73 C 642.67 375.82 634.70 359.10 621.74 346.56 C 621.94 345.96 622.33 344.74 622.52 344.13 C 620.66 341.98 618.47 340.18 616.39 338.28 C 616.57 337.83 616.94 336.93 617.12 336.49 C 615.70 335.14 614.46 333.61 613.70 331.80 Z" />
</g>
<g id="Group-000000" fill="#3B3535">
<path fill="#3B3535" opacity="1.00" d=" M 423.14 377.09 C 428.88 368.08 436.51 360.30 445.09 353.99 C 448.50 355.89 451.21 358.87 453.31 362.13 C 445.93 371.18 439.17 380.90 434.74 391.77 C 426.73 411.64 421.11 432.65 419.78 454.09 C 419.11 463.11 418.93 472.16 418.89 481.20 C 418.59 485.20 411.47 485.08 411.56 481.00 C 411.73 461.61 412.52 442.03 417.29 423.14 C 420.83 408.41 425.48 393.85 432.15 380.22 C 433.26 377.93 434.72 375.79 435.47 373.34 C 426.32 382.83 421.11 395.41 417.23 407.84 C 409.91 430.84 408.61 455.21 408.79 479.18 C 408.75 482.60 403.82 483.54 402.04 480.98 C 401.38 479.03 401.53 476.96 401.53 474.95 C 401.57 452.42 403.21 429.63 409.66 407.94 C 412.80 397.14 416.90 386.49 423.14 377.09 Z" />
</g>
<g id="Group-000000" fill="#3B3535">
<path fill="#3B3535" opacity="1.00" d=" M 526.36 422.38 C 533.97 420.93 542.69 423.18 547.83 429.25 C 552.46 434.93 554.10 443.75 549.87 450.08 C 546.08 455.78 538.15 456.98 532.09 454.61 C 525.91 452.11 520.41 447.83 516.16 442.74 C 513.53 440.01 517.65 435.26 520.72 437.09 C 525.18 441.48 529.72 446.32 535.82 448.36 C 539.17 449.61 543.47 447.98 544.73 444.52 C 546.43 438.89 543.00 432.52 537.60 430.43 C 534.25 429.00 530.59 429.52 527.08 429.50 C 523.21 429.07 522.79 423.65 526.36 422.38 Z" />
</g>
<g id="Group-000000" fill="#3B3535">
<path fill="rgba(0,0,0,0)" opacity="1.00" d=" M 415.22 915.88 C 509.15 915.78 603.09 915.37 697.01 915.74 L 698.26 916.39 C 720.38 921.14 742.75 924.82 764.92 929.42 C 783.96 933.21 802.96 937.21 822.06 940.70 C 847.82 945.59 873.43 951.27 898.99 957.12 C 919.10 961.88 939.26 966.58 958.90 973.04 C 960.22 973.26 960.61 974.48 960.75 975.65 C 958.16 975.80 955.56 975.67 953.00 975.97 C 951.30 976.80 949.87 978.27 947.93 978.51 C 940.33 979.60 932.63 979.28 924.98 979.21 C 871.99 977.94 818.98 977.70 765.98 976.99 C 718.30 976.29 670.65 974.52 622.98 973.56 C 593.29 972.94 563.62 971.15 534.07 968.15 C 504.87 964.95 475.58 961.31 447.13 953.81 C 436.84 950.99 426.00 947.49 418.50 939.50 C 412.49 933.33 411.78 923.52 415.22 915.88 Z" />
</g>
</g></svg>